<svg width="16" height="16" viewBox="0 0 16 16" fill="none" xmlns="http://www.w3.org/2000/svg">
<g id="Vector">
<path id="vector-19" d="M10.67 7.05398L6.68004 11.316C6.34156 11.6942 5.85986 11.9129 5.35236 11.9187C4.84487 11.9246 4.35821 11.7172 4.01104 11.347C3.24412 10.5464 3.257 9.27982 4.04004 8.49498L9.39904 2.76398C9.99015 2.10588 10.8315 1.72775 11.7161 1.72261C12.6006 1.71747 13.4463 2.0858 14.045 2.73698C15.3222 4.14834 15.3131 6.30047 14.024 7.70098L8.34204 13.772C7.53339 14.5837 6.42651 15.027 5.28113 14.9981C4.13575 14.9692 3.05268 14.4704 2.28604 13.619C0.533695 11.6424 0.577053 8.65588 2.38604 6.73098L7.75304 1.00098" stroke="#14243E" stroke-opacity="0.9" stroke-linecap="round" stroke-linejoin="round"/>
</g>
</svg>
