<svg width="25" height="25" viewBox="0 0 25 25" fill="none" xmlns="http://www.w3.org/2000/svg">
<g id="vuesax/outline/microphone">
<g id="microphone">
<path id="Vector" d="M12.5 20.25C8.78 20.25 5.75 17.22 5.75 13.5V8.5C5.75 4.78 8.78 1.75 12.5 1.75C16.22 1.75 19.25 4.78 19.25 8.5V13.5C19.25 17.22 16.22 20.25 12.5 20.25ZM12.5 3.25C9.61 3.25 7.25 5.6 7.25 8.5V13.5C7.25 16.4 9.61 18.75 12.5 18.75C15.39 18.75 17.75 16.4 17.75 13.5V8.5C17.75 5.6 15.39 3.25 12.5 3.25Z" fill="#14243E" fill-opacity="0.9"/>
<path id="Vector_2" d="M12.5 23.25C7.12 23.25 2.75 18.88 2.75 13.5V11.5C2.75 11.09 3.09 10.75 3.5 10.75C3.91 10.75 4.25 11.09 4.25 11.5V13.5C4.25 18.05 7.95 21.75 12.5 21.75C17.05 21.75 20.75 18.05 20.75 13.5V11.5C20.75 11.09 21.09 10.75 21.5 10.75C21.91 10.75 22.25 11.09 22.25 11.5V13.5C22.25 18.88 17.88 23.25 12.5 23.25Z" fill="#14243E" fill-opacity="0.9"/>
<path id="Vector_3" d="M15.11 8.72988C15.03 8.72988 14.94 8.71988 14.85 8.68988C13.24 8.10988 11.47 8.10988 9.86 8.68988C9.48 8.82988 9.05 8.62988 8.91 8.23988C8.77 7.84988 8.97 7.41988 9.36 7.27988C11.3 6.57988 13.43 6.57988 15.37 7.27988C15.76 7.41988 15.96 7.84988 15.82 8.23988C15.71 8.54988 15.42 8.72988 15.11 8.72988Z" fill="#14243E" fill-opacity="0.9"/>
<path id="Vector_4" d="M14.2 11.73C14.14 11.73 14.07 11.72 14 11.7C12.93 11.41 11.8 11.41 10.73 11.7C10.32 11.81 9.91998 11.57 9.80998 11.17C9.69998 10.77 9.93998 10.36 10.34 10.25C11.67 9.88998 13.07 9.88998 14.4 10.25C14.8 10.36 15.04 10.77 14.93 11.17C14.83 11.52 14.53 11.73 14.2 11.73Z" fill="#14243E" fill-opacity="0.9"/>
</g>
</g>
</svg>
