<svg width="23" height="24" viewBox="0 0 23 24" fill="none" xmlns="http://www.w3.org/2000/svg">
<g id="vuesax/outline/messages">
<g id="messages">
<path id="Vector" d="M9.5737 22.3308C8.9987 22.3308 8.45245 22.0433 8.0787 21.5354L6.92872 20.0021C6.92872 20.0117 6.8808 19.9829 6.86163 19.9829H6.50705C3.22955 19.9829 1.19788 19.0917 1.19788 14.6738V10.8404C1.19788 6.80584 3.6608 5.75167 5.7308 5.56959C5.9608 5.54084 6.22913 5.53125 6.50705 5.53125H12.6404C16.1095 5.53125 17.9496 7.37126 17.9496 10.8404V14.6738C17.9496 14.9517 17.94 15.22 17.9016 15.4788C17.7291 17.52 16.675 19.9829 12.6404 19.9829H12.2571L11.0687 21.5354C10.6949 22.0433 10.1487 22.3308 9.5737 22.3308ZM6.50705 6.96875C6.28663 6.96875 6.0758 6.97833 5.87455 6.9975C3.65121 7.18917 2.63538 8.40626 2.63538 10.8404V14.6738C2.63538 17.9608 3.65122 18.5454 6.50705 18.5454H6.89038C7.32163 18.5454 7.81037 18.785 8.0787 19.13L9.22871 20.6729C9.43955 20.9604 9.70788 20.9604 9.91871 20.6729L11.0687 19.1396C11.3466 18.7658 11.7875 18.5454 12.2571 18.5454H12.6404C15.0745 18.5454 16.2916 17.52 16.4737 15.335C16.5025 15.105 16.5121 14.8942 16.5121 14.6738V10.8404C16.5121 8.16667 15.3141 6.96875 12.6404 6.96875H6.50705Z" fill="#14243E" fill-opacity="0.9"/>
<path id="Vector_2" d="M9.57393 14.0988C9.03727 14.0988 8.6156 13.6675 8.6156 13.1405C8.6156 12.6134 9.04685 12.1821 9.57393 12.1821C10.101 12.1821 10.5323 12.6134 10.5323 13.1405C10.5323 13.6675 10.1106 14.0988 9.57393 14.0988Z" fill="#14243E" fill-opacity="0.9"/>
<path id="Vector_3" d="M12.6403 14.0988C12.1037 14.0988 11.682 13.6675 11.682 13.1405C11.682 12.6134 12.1133 12.1821 12.6403 12.1821C13.1674 12.1821 13.5987 12.6134 13.5987 13.1405C13.5987 13.6675 13.1674 14.0988 12.6403 14.0988Z" fill="#14243E" fill-opacity="0.9"/>
<path id="Vector_4" d="M6.51644 14.0988C5.97977 14.0988 5.55811 13.6675 5.55811 13.1405C5.55811 12.6134 5.98936 12.1821 6.51644 12.1821C7.04352 12.1821 7.47477 12.6134 7.47477 13.1405C7.47477 13.6675 7.04352 14.0988 6.51644 14.0988Z" fill="#14243E" fill-opacity="0.9"/>
<path id="Vector_5" d="M17.1927 16.1111C17.001 16.1111 16.8093 16.0344 16.6751 15.8907C16.5218 15.7373 16.4547 15.5169 16.4835 15.3061C16.5122 15.1048 16.5218 14.894 16.5218 14.6736V10.8403C16.5218 8.16651 15.3239 6.96859 12.6502 6.96859H6.5168C6.29639 6.96859 6.08558 6.97817 5.88433 6.99734C5.6735 7.02609 5.45306 6.94941 5.29973 6.80566C5.1464 6.65232 5.06014 6.44151 5.0793 6.23068C5.2518 4.16068 6.31555 1.69775 10.3501 1.69775H16.4835C19.9527 1.69775 21.7926 3.53776 21.7926 7.00693V10.8403C21.7926 14.8748 19.3297 15.929 17.2597 16.1111C17.231 16.1111 17.2118 16.1111 17.1927 16.1111ZM6.63183 5.53109H12.6406C16.1097 5.53109 17.9497 7.3711 17.9497 10.8403V14.549C19.5789 14.1465 20.3456 12.9486 20.3456 10.8403V7.00693C20.3456 4.33318 19.1477 3.13525 16.4739 3.13525H10.3406C8.23224 3.13525 7.04391 3.90192 6.63183 5.53109Z" fill="#14243E" fill-opacity="0.9"/>
</g>
</g>
</svg>
