<svg width="24" height="22" viewBox="0 0 24 22" fill="none" xmlns="http://www.w3.org/2000/svg">
<path id="Vector" d="M13.728 2.4325L15.488 5.9525C15.728 6.4425 16.368 6.9125 16.908 7.0025L20.098 7.5325C22.138 7.8725 22.618 9.3525 21.148 10.8125L18.668 13.2925C18.248 13.7125 18.018 14.5225 18.148 15.1025L18.858 18.1725C19.418 20.6025 18.128 21.5425 15.978 20.2725L12.988 18.5025C12.448 18.1825 11.558 18.1825 11.008 18.5025L8.01796 20.2725C5.87796 21.5425 4.57796 20.5925 5.13796 18.1725L5.84796 15.1025C5.97796 14.5225 5.74796 13.7125 5.32796 13.2925L2.84796 10.8125C1.38796 9.3525 1.85796 7.8725 3.89796 7.5325L7.08796 7.0025C7.61796 6.9125 8.25796 6.4425 8.49796 5.9525L10.258 2.4325C11.218 0.5225 12.778 0.5225 13.728 2.4325Z" fill="white" stroke="white" stroke-width="2" stroke-linecap="round" stroke-linejoin="round"/>
</svg>
