<svg width="24" height="25" viewBox="0 0 24 25" fill="none" xmlns="http://www.w3.org/2000/svg">
<g id="vuesax/linear/microphone-2">
<g id="microphone-2">
<path id="Vector" d="M12 16C14.21 16 16 14.21 16 12V6.5C16 4.29 14.21 2.5 12 2.5C9.79 2.5 8 4.29 8 6.5V12C8 14.21 9.79 16 12 16Z" stroke="#14243E" stroke-opacity="0.9" stroke-width="1.5" stroke-linecap="round" stroke-linejoin="round"/>
<path id="Vector_2" d="M4.35001 10.1499V11.8499C4.35001 16.0699 7.78001 19.4999 12 19.4999C16.22 19.4999 19.65 16.0699 19.65 11.8499V10.1499" stroke="#14243E" stroke-opacity="0.9" stroke-width="1.5" stroke-linecap="round" stroke-linejoin="round"/>
<path id="Vector_3" d="M10.61 6.93012C11.51 6.60012 12.49 6.60012 13.39 6.93012" stroke="#14243E" stroke-opacity="0.9" stroke-width="1.5" stroke-linecap="round" stroke-linejoin="round"/>
<path id="Vector_4" d="M11.2 9.04982C11.73 8.90982 12.28 8.90982 12.81 9.04982" stroke="#14243E" stroke-opacity="0.9" stroke-width="1.5" stroke-linecap="round" stroke-linejoin="round"/>
<path id="Vector_5" d="M12 19.5V22.5" stroke="#14243E" stroke-opacity="0.9" stroke-width="1.5" stroke-linecap="round" stroke-linejoin="round"/>
</g>
</g>
</svg>
