<svg width="24" height="25" viewBox="0 0 24 25" fill="none" xmlns="http://www.w3.org/2000/svg">
<g id="vuesax/linear/more-2">
<g id="more-2">
<path id="Vector" d="M12 9.82C13.19 9.82 14.16 8.85 14.16 7.66C14.16 6.47 13.19 5.5 12 5.5C10.81 5.5 9.84003 6.47 9.84003 7.66C9.84003 8.85 10.81 9.82 12 9.82Z" stroke="#14243E" stroke-opacity="0.9" stroke-width="1.5" stroke-linecap="round" stroke-linejoin="round"/>
<path id="Vector_2" d="M6.79 19.5002C7.98 19.5002 8.95 18.5302 8.95 17.3402C8.95 16.1502 7.98 15.1802 6.79 15.1802C5.6 15.1802 4.63 16.1502 4.63 17.3402C4.63 18.5302 5.59 19.5002 6.79 19.5002Z" stroke="#14243E" stroke-opacity="0.9" stroke-width="1.5" stroke-linecap="round" stroke-linejoin="round"/>
<path id="Vector_3" d="M17.21 19.5002C18.4 19.5002 19.37 18.5302 19.37 17.3402C19.37 16.1502 18.4 15.1802 17.21 15.1802C16.02 15.1802 15.05 16.1502 15.05 17.3402C15.05 18.5302 16.02 19.5002 17.21 19.5002Z" stroke="#14243E" stroke-opacity="0.9" stroke-width="1.5" stroke-linecap="round" stroke-linejoin="round"/>
</g>
</g>
</svg>
