<svg width="24" height="24" viewBox="0 0 24 24" fill="none" xmlns="http://www.w3.org/2000/svg">
<g id="vuesax/linear/setting-4">
<g id="setting-4">
<path id="Vector" d="M21.999 6.5H15.999" stroke="#CB1E25" stroke-width="1.5" stroke-miterlimit="10" stroke-linecap="round" stroke-linejoin="round"/>
<path id="Vector_2" d="M5.99902 6.5H1.99902" stroke="#CB1E25" stroke-width="1.5" stroke-miterlimit="10" stroke-linecap="round" stroke-linejoin="round"/>
<path id="Vector_3" d="M9.99902 10C11.932 10 13.499 8.433 13.499 6.5C13.499 4.567 11.932 3 9.99902 3C8.06603 3 6.49902 4.567 6.49902 6.5C6.49902 8.433 8.06603 10 9.99902 10Z" stroke="#CB1E25" stroke-width="1.5" stroke-miterlimit="10" stroke-linecap="round" stroke-linejoin="round"/>
<path id="Vector_4" d="M21.999 17.5H17.999" stroke="#CB1E25" stroke-width="1.5" stroke-miterlimit="10" stroke-linecap="round" stroke-linejoin="round"/>
<path id="Vector_5" d="M7.99902 17.5H1.99902" stroke="#CB1E25" stroke-width="1.5" stroke-miterlimit="10" stroke-linecap="round" stroke-linejoin="round"/>
<path id="Vector_6" d="M13.999 21C15.932 21 17.499 19.433 17.499 17.5C17.499 15.567 15.932 14 13.999 14C12.066 14 10.499 15.567 10.499 17.5C10.499 19.433 12.066 21 13.999 21Z" stroke="#CB1E25" stroke-width="1.5" stroke-miterlimit="10" stroke-linecap="round" stroke-linejoin="round"/>
</g>
</g>
</svg>
